# xmcd CD database file
#
# Track frame offsets:
#	150
#	24171
#	43717
#	61606
#	85725
#	102872
#	124863
#
# Disc length: 1848 seconds
#
# Revision: 3
# Processed by: cddbd v1.5.2PL0 Copyright (c) Steve Scherf et al.
# Submitted via: CDex 1.70beta3
#
DISCID=49073607
DTITLE=Blue Mitchell - Bantu Village
DYEAR=1969
DGENRE=Jazz
TTITLE0=H.N.I.C.
TTITLE1=Flat Backing
TTITLE2=Na Ta Ka
TTITLE3=Heads Down
TTITLE4=Bantu Village
TTITLE5=Blue Dashiki
TTITLE6=Bush Girl
EXTD=YEAR: 1969
EXTT0=
EXTT1=
EXTT2=
EXTT3=
EXTT4=
EXTT5=
EXTT6=
PLAYORDER=
